<?xml version="1.0" encoding="utf-8"?>
<!-- Generator: Adobe Illustrator 21.0.1, SVG Export Plug-In . SVG Version: 6.00 Build 0)  -->
<svg version="1.1" id="more" xmlns="http://www.w3.org/2000/svg" xmlns:xlink="http://www.w3.org/1999/xlink" x="0px" y="0px"
	 viewBox="0 0 29 5" style="enable-background:new 0 0 29 5;" xml:space="preserve">
<style type="text/css">
	.st0{fill:#666666;}
</style>
<path id="plus" class="st0" d="M5,2H3.5C3.2,2,3,1.8,3,1.5V0H2v1.5C2,1.8,1.8,2,1.5,2H0v1h1.5C1.8,3,2,3.2,2,3.5V5h1V3.5
	C3,3.2,3.2,3,3.5,3H5V2z"/>
<polygon id="M" class="st0" points="10,0 9,0 8,0 7,0 6,0 6,1 6,5 7,5 7,1 8,1 8,5 9,5 9,1 10,1 10,5 11,5 11,1 11,0 "/>
<path id="O" class="st0" d="M16,0h-3h-1v1v3v1h1h3h1V4V1V0H16z M16,4h-3V1h3V4z"/>
<g id="R">
	<path class="st0" d="M22,0h-3h-1v1v1v1v2h1V3h2v1h1V3h1V2V1V0H22z M22,2h-3V1h3V2z"/>
	<rect x="22" y="4" class="st0" width="1" height="1"/>
</g>
<polygon id="E" class="st0" points="29,1 29,0 25,0 24,0 24,1 24,2 24,3 24,4 24,5 25,5 29,5 29,4 25,4 25,3 28,3 28,2 25,2 25,1 
	"/>
</svg>
